
<svg width="22px" height="18px" viewBox="0 0 22 18" version="1.1" xmlns="http://www.w3.org/2000/svg" xmlns:xlink="http://www.w3.org/1999/xlink">
    <!-- Generator: Sketch 50.2 (55047) - http://www.bohemiancoding.com/sketch -->
    <desc>Created with Sketch.</desc>
    <defs></defs>
    <g id="170318" stroke="none" stroke-width="1" fill="none" fill-rule="evenodd">
        <g id="0.x" transform="translate(-30.000000, -291.000000)" fill="#706DF9" fill-rule="nonzero">
            <g id="Group-16" transform="translate(4.000000, 114.000000)">
                <g id="Group-12" transform="translate(26.000000, 177.000000)">
                    <path d="M4.8125002,12.3750005 C4.61725019,12.3750005 4.43162518,12.2911255 4.30100018,12.1467505 C3.86100016,11.6572505 0,7.2833753 0,4.8125002 C0,2.15875009 2.15875009,0 4.8125002,0 C7.4662503,0 9.62500039,2.15875009 9.62500039,4.8125002 C9.62500039,7.2833753 5.76400024,11.6572505 5.32400022,12.1467505 C5.19337521,12.2911255 5.0077502,12.3750005 4.8125002,12.3750005 Z M4.8125002,1.37500006 C2.91775012,1.37500006 1.37500006,2.91775012 1.37500006,4.8125002 C1.37500006,6.12562525 3.31100014,8.85912536 4.8125002,10.6383754 C6.31400026,8.85775036 8.25000034,6.12425025 8.25000034,4.8125002 C8.25000034,2.91775012 6.70725027,1.37500006 4.8125002,1.37500006 Z" id="Shape-Copy-7" opacity="0.25"></path>
                    <path d="M4.8125002,6.87500028 C3.67537515,6.87500028 2.75000011,5.94962524 2.75000011,4.8125002 C2.75000011,3.67537515 3.67537515,2.75000011 4.8125002,2.75000011 C5.94962524,2.75000011 6.87500028,3.67537515 6.87500028,4.8125002 C6.87500028,5.94962524 5.94962524,6.87500028 4.8125002,6.87500028 Z M4.8125002,4.12500017 C4.43300018,4.12500017 4.12500017,4.43300018 4.12500017,4.8125002 C4.12500017,5.19200021 4.43300018,5.50000022 4.8125002,5.50000022 C5.19200021,5.50000022 5.50000022,5.19200021 5.50000022,4.8125002 C5.50000022,4.43300018 5.19200021,4.12500017 4.8125002,4.12500017 Z" id="Shape-Copy-6" opacity="0.25"></path>
                    <path d="M17.1875007,12.3750005 C16.9922507,12.3750005 16.8066257,12.2911255 16.6760007,12.1467505 C16.2360007,11.6572505 12.3750005,7.2833753 12.3750005,4.8125002 C12.3750005,2.15875009 14.5337506,0 17.1875007,0 C19.8412508,0 22.0000009,2.15875009 22.0000009,4.8125002 C22.0000009,7.2833753 18.1390007,11.6572505 17.6990007,12.1467505 C17.5683757,12.2911255 17.3827507,12.3750005 17.1875007,12.3750005 Z M17.1875007,1.37500006 C15.2913756,1.37500006 13.7500006,2.91775012 13.7500006,4.8125002 C13.7500006,6.12562525 15.6860006,8.85912536 17.1875007,10.6383754 C18.6890008,8.85775036 20.6250008,6.12425025 20.6250008,4.8125002 C20.6250008,2.91775012 19.0836258,1.37500006 17.1875007,1.37500006 Z" id="Shape-Copy-5"></path>
                    <path d="M17.1875007,6.87500028 C16.0503757,6.87500028 15.1250006,5.94962524 15.1250006,4.8125002 C15.1250006,3.67537515 16.0503757,2.75000011 17.1875007,2.75000011 C18.3246257,2.75000011 19.2500008,3.67537515 19.2500008,4.8125002 C19.2500008,5.94962524 18.3246257,6.87500028 17.1875007,6.87500028 Z M17.1875007,4.12500017 C16.8093757,4.12500017 16.5000007,4.43300018 16.5000007,4.8125002 C16.5000007,5.19200021 16.8093757,5.50000022 17.1875007,5.50000022 C17.5656257,5.50000022 17.8750007,5.19200021 17.8750007,4.8125002 C17.8750007,4.43300018 17.5656257,4.12500017 17.1875007,4.12500017 Z" id="Shape-Copy-4"></path>
                    <path d="M4.8125002,17.8750007 C3.67537515,17.8750007 2.75000011,16.9496257 2.75000011,15.8125006 C2.75000011,14.6753756 3.67537515,13.7500006 4.8125002,13.7500006 C5.94962524,13.7500006 6.87500028,14.6753756 6.87500028,15.8125006 C6.87500028,16.9496257 5.94962524,17.8750007 4.8125002,17.8750007 Z M4.8125002,15.1250006 C5.19200021,15.1250006 5.50000022,15.4343756 5.50000022,15.8125006 C5.50000022,16.1906257 5.19200021,16.5000007 4.8125002,16.5000007 C4.43300018,16.5000007 4.12500017,16.1906257 4.12500017,15.8125006 C4.12500017,15.4343756 4.43300018,15.1250006 4.8125002,15.1250006 Z M6.18750025,15.1250006 L15.8125006,15.1250006 L15.8125006,16.5000007 L6.18750025,16.5000007 L6.18750025,15.1250006 Z" id="Combined-Shape" opacity="0.25"></path>
                    <path d="M17.1875007,17.8750007 C16.0503757,17.8750007 15.1250006,16.9496257 15.1250006,15.8125006 C15.1250006,14.6753756 16.0503757,13.7500006 17.1875007,13.7500006 C18.3246257,13.7500006 19.2500008,14.6753756 19.2500008,15.8125006 C19.2500008,16.9496257 18.3246257,17.8750007 17.1875007,17.8750007 Z M17.1875007,15.1250006 C16.8093757,15.1250006 16.5000007,15.4343756 16.5000007,15.8125006 C16.5000007,16.1906257 16.8093757,16.5000007 17.1875007,16.5000007 C17.5656257,16.5000007 17.8750007,16.1906257 17.8750007,15.8125006 C17.8750007,15.4343756 17.5656257,15.1250006 17.1875007,15.1250006 Z" id="Shape-Copy-2"></path>
                </g>
            </g>
        </g>
    </g>
</svg>