<svg width="22px" height="19px" viewBox="0 0 22 19" version="1.1" xmlns="http://www.w3.org/2000/svg" xmlns:xlink="http://www.w3.org/1999/xlink">
    <!-- Generator: Sketch 50.2 (55047) - http://www.bohemiancoding.com/sketch -->
    <desc>Created with Sketch.</desc>
    <defs></defs>
    <g id="170318" stroke="none" stroke-width="1" fill="none" fill-rule="evenodd">
        <g id="0.x" transform="translate(-30.000000, -197.000000)" fill="#706DF9" fill-rule="nonzero">
            <g id="Group-16" transform="translate(4.000000, 114.000000)">
                <g id="Group-11" transform="translate(26.000000, 83.000000)">
                    <path d="M4.8125002,12.6749997 C4.61725019,12.6749997 4.43162518,12.5911247 4.30100018,12.4467497 C3.86100016,11.9572497 0,7.58337453 0,5.11249943 C0,2.45874933 2.15875009,0.299999237 4.8125002,0.299999237 C7.4662503,0.299999237 9.62500039,2.45874933 9.62500039,5.11249943 C9.62500039,7.58337453 5.76400024,11.9572497 5.32400022,12.4467497 C5.19337521,12.5911247 5.0077502,12.6749997 4.8125002,12.6749997 Z M4.8125002,1.67499929 C2.91775012,1.67499929 1.37500006,3.21774936 1.37500006,5.11249943 C1.37500006,6.42562449 3.31100014,9.1591246 4.8125002,10.9383747 C6.31400026,9.1577496 8.25000034,6.42424949 8.25000034,5.11249943 C8.25000034,3.21774936 6.70725027,1.67499929 4.8125002,1.67499929 Z" id="Shape"></path>
                    <path d="M4.8125002,7.17499952 C3.67537515,7.17499952 2.75000011,6.24962448 2.75000011,5.11249943 C2.75000011,3.97537439 3.67537515,3.04999935 4.8125002,3.04999935 C5.94962524,3.04999935 6.87500028,3.97537439 6.87500028,5.11249943 C6.87500028,6.24962448 5.94962524,7.17499952 4.8125002,7.17499952 Z M4.8125002,4.42499941 C4.43300018,4.42499941 4.12500017,4.73299942 4.12500017,5.11249943 C4.12500017,5.49199945 4.43300018,5.79999946 4.8125002,5.79999946 C5.19200021,5.79999946 5.50000022,5.49199945 5.50000022,5.11249943 C5.50000022,4.73299942 5.19200021,4.42499941 4.8125002,4.42499941 Z" id="Shape"></path>
                    <path d="M17.1875007,12.6749997 C16.9922507,12.6749997 16.8066257,12.5911247 16.6760007,12.4467497 C16.2360007,11.9572497 12.3750005,7.58337453 12.3750005,5.11249943 C12.3750005,2.45874933 14.5337506,0.299999237 17.1875007,0.299999237 C19.8412508,0.299999237 22.0000009,2.45874933 22.0000009,5.11249943 C22.0000009,7.58337453 18.1390007,11.9572497 17.6990007,12.4467497 C17.5683757,12.5911247 17.3827507,12.6749997 17.1875007,12.6749997 Z M17.1875007,1.67499929 C15.2913756,1.67499929 13.7500006,3.21774936 13.7500006,5.11249943 C13.7500006,6.42562449 15.6860006,9.1591246 17.1875007,10.9383747 C18.6890008,9.1577496 20.6250008,6.42424949 20.6250008,5.11249943 C20.6250008,3.21774936 19.0836258,1.67499929 17.1875007,1.67499929 Z" id="Shape" opacity="0.25"></path>
                    <path d="M17.1875007,7.17499952 C16.0503757,7.17499952 15.1250006,6.24962448 15.1250006,5.11249943 C15.1250006,3.97537439 16.0503757,3.04999935 17.1875007,3.04999935 C18.3246257,3.04999935 19.2500008,3.97537439 19.2500008,5.11249943 C19.2500008,6.24962448 18.3246257,7.17499952 17.1875007,7.17499952 Z M17.1875007,4.42499941 C16.8093757,4.42499941 16.5000007,4.73299942 16.5000007,5.11249943 C16.5000007,5.49199945 16.8093757,5.79999946 17.1875007,5.79999946 C17.5656257,5.79999946 17.8750007,5.49199945 17.8750007,5.11249943 C17.8750007,4.73299942 17.5656257,4.42499941 17.1875007,4.42499941 Z" id="Shape" opacity="0.25"></path>
                    <path d="M4.8125002,18.175 C3.67537515,18.175 2.75000011,17.2496249 2.75000011,16.1124999 C2.75000011,14.9753748 3.67537515,14.0499998 4.8125002,14.0499998 C5.94962524,14.0499998 6.87500028,14.9753748 6.87500028,16.1124999 C6.87500028,17.2496249 5.94962524,18.175 4.8125002,18.175 Z M4.8125002,15.4249999 C4.43300018,15.4249999 4.12500017,15.7343749 4.12500017,16.1124999 C4.12500017,16.4906249 4.43300018,16.7999999 4.8125002,16.7999999 C5.19200021,16.7999999 5.50000022,16.4906249 5.50000022,16.1124999 C5.50000022,15.7343749 5.19200021,15.4249999 4.8125002,15.4249999 Z" id="Shape"></path>
                    <path d="M17.1875007,18.175 C16.0503757,18.175 15.1250006,17.2496249 15.1250006,16.1124999 C15.1250006,14.9753748 16.0503757,14.0499998 17.1875007,14.0499998 C18.3246257,14.0499998 19.2500008,14.9753748 19.2500008,16.1124999 C19.2500008,17.2496249 18.3246257,18.175 17.1875007,18.175 Z M17.1875007,15.4249999 C17.5656257,15.4249999 17.8750007,15.7343749 17.8750007,16.1124999 C17.8750007,16.4906249 17.5656257,16.7999999 17.1875007,16.7999999 C16.8093757,16.7999999 16.5000007,16.4906249 16.5000007,16.1124999 C16.5000007,15.7343749 16.8093757,15.4249999 17.1875007,15.4249999 Z M6.18750025,15.4249999 L15.8125006,15.4249999 L15.8125006,16.7999999 L6.18750025,16.7999999 L6.18750025,15.4249999 Z" id="Combined-Shape" opacity="0.25"></path>
                </g>
            </g>
        </g>
    </g>
</svg>