<svg width="32px" height="32px" viewBox="0 0 32 32" version="1.1" xmlns="http://www.w3.org/2000/svg" xmlns:xlink="http://www.w3.org/1999/xlink">
    <!-- Generator: Sketch 50.2 (55047) - http://www.bohemiancoding.com/sketch -->
    <desc>Created with Sketch.</desc>
    <defs></defs>
    <g id="170318" stroke="none" stroke-width="1" fill="none" fill-rule="evenodd">
        <g id="1.x" transform="translate(-15.000000, -628.000000)">
            <g id="Group-6" transform="translate(-9.000000, 616.000000)">
                <g id="Group-4" transform="translate(24.000000, 12.000000)">
                    <circle id="Oval-4" fill="#807DFB" cx="16" cy="16" r="16"></circle>
                    <path d="M7,22.4375 L22.75,22.4375 L22.75,12.3125 L7,12.3125 L7,22.4375 Z M8.125,15.6875 C9.3675625,15.6875 10.375,14.6800625 10.375,13.4375 L19.375,13.4375 C19.375,14.6800625 20.3824375,15.6875 21.625,15.6875 L21.625,19.0625 C20.3824375,19.0625 19.375,20.0699375 19.375,21.3125 L10.375,21.3125 C10.375,20.0699375 9.3675625,19.0625 8.125,19.0625 L8.125,15.6875 Z M12.0625,17.375 C12.0625,15.8215156 13.3215508,14.5625 14.875,14.5625 C16.4284492,14.5625 17.6875,15.8215508 17.6875,17.375 C17.6875,18.9284492 16.4284492,20.1875 14.875,20.1875 C13.3215508,20.1875 12.0625,18.9284844 12.0625,17.375 Z M25,10.0625 L25,21.3125 L23.875,21.3125 L23.875,11.1875 L8.125,11.1875 L8.125,10.0625 L25,10.0625 Z" id="Shape" fill="#FFFFFF" fill-rule="nonzero"></path>
                </g>
            </g>
        </g>
    </g>
</svg>